<?xml version="1.0" standalone="no"?><!DOCTYPE svg PUBLIC "-//W3C//DTD SVG 1.1//EN" "http://www.w3.org/Graphics/SVG/1.1/DTD/svg11.dtd"><svg t="1639204107017" class="icon" viewBox="0 0 1024 1024" version="1.1" xmlns="http://www.w3.org/2000/svg" p-id="8739" xmlns:xlink="http://www.w3.org/1999/xlink" width="200" height="200"><defs><style type="text/css"></style></defs><path d="M419.8 379.42l-1.15 1.98c1.49-0.52 2.94-1.18 4.36-1.98h-3.21zM484 450.51h14.75l-18.03-31.23-11.34 19.64A21.43 21.43 0 0 1 484 450.51zM467.09 442.9l-4.39 7.61h16.34c-2.64-4.05-6.95-6.92-11.95-7.61z" fill="#17abe3" p-id="8740"></path><path d="M511.99 485.77c-244.78 0-446.05-88.07-446.05-209.92S267.21 65.93 511.99 65.93c244.81 0 446.04 88.07 446.04 209.92S756.8 485.77 511.99 485.77z m0-52.5c218.92 0 393.59-76.38 393.59-157.42 0-81-174.66-157.42-393.59-157.42-218.93 0-393.59 76.42-393.59 157.42 0 81.04 174.71 157.42 393.59 157.42zM223.36 669.44c0-14.49 11.76-26.24 26.25-26.24 14.5 0 26.25 11.75 26.25 26.24 0 36.91 104.51 78.71 236.13 78.71 131.61 0 236.17-41.8 236.17-78.71 0.58-14.06 12.15-25.17 26.23-25.17s25.65 11.1 26.23 25.17c0 79.02-130.4 131.17-288.62 131.17-158.19-0.01-288.64-52.15-288.64-131.17z m0 0" fill="#17abe3" p-id="8741"></path><path d="M380.82 774.4C222.6 774.4 92.2 722.21 92.2 643.19c-0.4-9.63 4.51-18.7 12.79-23.64a26.257 26.257 0 0 1 26.87 0 26.258 26.258 0 0 1 12.79 23.64c0 36.91 109.04 76.42 235.86 92.23m288.94 38.98l0.27-38.98c126.82-15.81 235.86-55.32 235.86-92.23-0.4-9.63 4.51-18.7 12.79-23.64a26.257 26.257 0 0 1 26.87 0 26.258 26.258 0 0 1 12.79 23.64c0 79.02-130.36 131.21-288.58 131.21z m-366.84 60.3c0.81-13.88 12.3-24.72 26.2-24.72 13.9 0 25.4 10.84 26.21 24.72 0 40.46 56 70.87 156.97 70.87 100.08 0 158.76-33.06 158.76-74.36a26.247 26.247 0 0 1 39.66-23.64c8.28 4.93 13.19 14 12.79 23.64 0 78.39-86.01 126.86-211.22 126.86-126.15 0-209.43-45.33-209.43-123.37h0.06z m-110.3-327.69c0.58-14.07 12.16-25.17 26.23-25.17 14.08 0 25.65 11.1 26.23 25.17 0 48.02 99.98 83.72 267.22 83.72 166.6 0 268.11-36.78 268.11-85.11 0-14.5 11.76-26.25 26.25-26.25s26.25 11.76 26.25 26.25c0 91.83-126.33 137.57-320.61 137.57-195.09 0-319.68-44.44-319.68-136.18z m0 0" fill="#17abe3" p-id="8742"></path><path d="M511.99 485.77a26.246 26.246 0 1 1-22.74-39.37 26.217 26.217 0 0 1 22.74-13.12c131.61 0 236.17-41.8 236.17-78.71s-104.56-78.71-236.17-78.71c-9.63 0.4-18.7-4.51-23.64-12.79a26.257 26.257 0 0 1 0-26.87 26.258 26.258 0 0 1 23.64-12.79c158.22 0 288.62 52.14 288.62 131.17 0.01 79-130.39 131.19-288.62 131.19z m0 0" fill="#17abe3" p-id="8743"></path></svg>